<svg width="760" height="240" viewBox="0 0 760 240" fill="none" xmlns="http://www.w3.org/2000/svg" role="img" aria-labelledby="title desc">
  <title id="title">Thais Monteiro signature light</title>
  <desc id="desc">Signature style logo for dark backgrounds</desc>
  <rect width="760" height="240" fill="none"/>
  <path d="M62 137C107 104 143 80 188 86C227 91 231 122 204 133C176 145 128 131 126 100C124 67 173 44 225 49C282 55 306 97 284 130C263 161 211 161 202 134C193 107 231 79 279 82C336 86 355 132 326 153C300 172 259 160 265 130C271 99 320 77 372 82C430 88 443 129 411 154C381 177 333 163 343 126C352 94 399 75 452 82C506 89 522 129 491 153C462 175 419 163 424 129C429 96 477 76 531 82C589 89 606 131 575 153C548 172 510 162 514 133C519 99 566 79 618 83C662 87 697 110 720 137" stroke="#F4F1EC" stroke-width="8" stroke-linecap="round" stroke-linejoin="round"/>
  <path d="M93 170C235 191 474 192 670 170" stroke="#EF1F3D" stroke-width="3" stroke-linecap="round"/>
</svg>
